<?xml version="1.0" encoding="utf-8"?>
<!-- Generator: Adobe Illustrator 24.1.2, SVG Export Plug-In . SVG Version: 6.00 Build 0)  -->
<svg version="1.1" id="Layer_1" xmlns="http://www.w3.org/2000/svg" xmlns:xlink="http://www.w3.org/1999/xlink" x="0px" y="0px"
	 viewBox="0 0 1011.6 367.2" style="enable-background:new 0 0 1011.6 367.2;" xml:space="preserve">
<image style="display:none;overflow:visible;" width="317" height="150" xlink:href="kates logo.jpg"  transform="matrix(3.7809 0 0 3.7809 -41.419 -42.075)">
</image>
<image style="display:none;overflow:visible;" width="317" height="150" xlink:href="kates logo.jpg"  transform="matrix(3.7809 0 0 3.7809 -41.419 371.5963)">
</image>
<path d="M0,27.5c0,0,58.6-9,79.6-26.5v236.6c0,0,71.5-77.1,75.1-90c3.5-12.9,1.4-20.7-2.2-22.2c-1.6-0.6-4.1-0.8-6.4-0.8
	c-3.2,0-5.8-2.6-5.8-5.8v-1.1c0,0,86,0,86,0c0,4-2.6,7.4-6.4,8.5c-10,2.7-31,11.6-59.9,41.3c-41,42.2-46.8,46.3-46.8,46.3
	s47.1-19.4,62.2,10c15.1,29.4,50.9,142.7,50.9,142.7s-52.8,0-52.8,0c-1.2-4.4-2.4-8.7-3.5-13.1c-2.8-10.3-5.7-20.6-8.6-30.9
	c-3.5-12.2-7-24.3-10.8-36.4c-5-16-9.5-32.4-19.7-46.1c-3.4-4.5-7.2-7.3-12.9-8c-4.3-0.6-8.6-0.5-12.9-0.3
	c-24.3,1.1-25.9,22.1-25.9,22.1v112.7H23V43.4c0,0,1.2-13.2-23-12.7V27.5z"/>
<path d="M465.3,120l83.2-83.2v79.7H586v0c0,4.2-3.4,7.6-7.6,7.6l-30,0v181.1c0,0-3.6,36.3,24.7,33.6c0,0,10.3-0.6,17.4-2
	c1.6-0.3,3.1,0.9,3.1,2.5l0,0c0,0-40.7,27.1-57.4,26.3c-16.7-0.8-36.2-4.1-40.9-38.9V124h-26C467.1,124,465.3,122.2,465.3,120
	L465.3,120z"/>
<path d="M471.4,362.5c0,0-30.3-122.7-40.4-174.5c-0.2-1.3-0.5-2.5-0.8-3.8c-4-18.2-11.5-36.2-23.8-50.4c-4.7-5.4-10-10.1-16.6-13.2
	c-7.2-3.4-14.4-5.7-22.2-6.6c-15.9-1.9-33-2.2-48.7,1.4c-12.4,2.9-24.2,8.3-34.3,16.1c-8.3,6.4-15.3,14.2-21.1,22.9
	c-4.3,6.4-7.8,13.3-10.6,20.4c-0.2,0.5-3,8.8-2.9,8.8c37.9,5.8,67.1,13.7,89.5,22.6c-8.9,4.9-17.7,10.2-26.2,15.8
	c-13.2,8.7-25.9,18.3-37.1,29.5c-8,8-15.4,16.9-20.8,26.9c-4,7.4-7,15.4-8.3,23.7c-1,6.6-0.8,13.4,0.6,20
	c2.5,11.9,9.1,22.9,18.9,30.3c9.3,7,20.6,9.5,31.8,11.4c12.6,2.1,25.4,3.6,38.2,2.4c16.1-1.5,31.8-6.8,44.3-17.2
	c25.2-20.8,36.3-37.7,38.3-55.4c-0.1,33-0.3,68.9-0.3,68.9H471.4z M302.7,183.1c0,0-9.3-38.4,48.5-52.2c2.7-0.6,5.4-1.2,8.2-1.6
	c9.8-1.5,20.1-1.3,29.6,2.2c6.8,2.5,12.9,6.7,17.7,12.1c3.7,4.2,6.7,9.1,8.9,14.2c2,4.7,3.6,8.8,3.7,14c0,0.1,0,0.1,0,0.2l-7.8,2.2
	c0,0-0.1,0-0.1,0c-0.9,0.2-1.9,0.5-2.8,0.8l-0.2,0.1l0,0c-2.2,0.7-4.4,1.4-6.5,2.2c-11.3,3.9-22.2,8.6-33,13.7
	c-5.3,2.5-10.6,5.1-15.8,7.8c-1.5,0.8-3.1,1.6-4.6,2.4C324.5,190,302.7,183.1,302.7,183.1z M412,293c-2.1,12.9-8.1,25.5-16.2,35.5
	c-2.5,3.1-5.3,6.1-8.4,8.7c-2.1,1.8-4.3,3.4-6.6,4.9c-6.4,4.1-13.5,6.9-20.8,8.7c-12.1,2.8-24.8,3-36.1-2.7
	c-5.7-2.9-10.8-6.7-14.9-11.6c-5.5-6.4-8.8-14.3-10.2-22.5c-2-12.3,0.1-25,3.6-36.9c8.1-27,29.4-48.4,51.8-64.1
	c13.7,6.6,26.9,14.8,37.7,25.6c7.1,7.1,13.2,15.4,16.9,24.8c2.5,6.2,3.9,12.8,4,19.5C412.8,286.1,412.5,289.6,412,293z M407.6,247
	c-9.3-16.7-24.2-27.8-45.9-39.2c26.6-17.2,52.6-26.7,57.8-28.4c0,2.9,0,5.9,0.1,8.9c0,0-0.2,46.7-0.4,93
	C418.2,271.7,413.5,257.6,407.6,247z"/>
<path d="M970.8,187c1.3,1.6,3.9,1.4,4.9-0.4c7-12.3,28.5-49.9,27.8-50.2c-0.8-0.3-55.9-39.6-131.1-19.8
	c-18.4,4.9-35.9,14.9-44.7,32.4c-6.3,12.4-7.5,26.8-5.9,40.5c4.5,38,41.6,55.3,72.9,69.5c60,27.3,60,27.3,60,27.3
	s39.6,18.7,29.7,47.4c-9.9,28.6-59.5,9.4-59.5,9.4s-57.4-21.7-82-76.7c-0.9-2-3.7-2-4.6,0l-23.9,55.3c-1.1,2.6-0.6,5.7,1.5,7.7
	c8.9,9.1,37.1,32.4,96.6,36.9c25.3,1.9,51.6-2.8,71.8-18.9c11.5-9.1,21.7-20.7,23.3-35.8c0.8-7.3,0.6-14.7-0.5-22
	c-3.2-20.2-15-38-31.7-49.7c-10.2-7.2-22.1-11.6-33.5-16.6c-10.4-4.5-20.7-8.9-31.1-13.3c-11.7-5-23.5-9.9-35.3-14.6
	c-2-0.8-3.9-1.6-5.9-2.3c-3.2-1.2-6.2-3.6-8.9-5.6c-5.8-4.3-11.1-9.7-14.6-16.1c-4.3-7.8-5-16.8-2-25.2c1.9-5.4,4.6-11.2,9.8-14.2
	c6.1-3.6,14.7-3.6,21.6-3.2c11.8,0.8,23.3,4.5,34,9.2c3.2,1.4,6.4,3,9.6,4.7C919.1,142.6,949.7,161.6,970.8,187z"/>
<path d="M795.7,287c-2.3,1.4-4.2,4-5.9,6.2c-9,12.5-22.9,19.9-37.9,23.1c-16.3,3.5-32.7,1.6-48.6-3.5c-20.8-6.7-41.9-15.7-55.8-32.4
	c42.7-25.8,91.2-41.9,130.9-72.1c5.6-4.3,11.2-9,14.6-15.2c4.3-8,4.5-17.8,2.5-26.7c-2.9-13.4-10.3-25.7-20.7-34.6
	c-13.8-11.8-32.1-17.1-50.1-19.4c-30.7-3.9-63.5,0.4-88.8,18.2c-23.8,16.7-38.8,44-44.5,72.5c-0.4,2.1-0.8,4.2-1.1,6.3
	c0,0,0,0,0,0.1c-2.2,19.9-3.5,41-0.2,60.8c0.5,3,1.1,6,2.1,9c7.2,31.6,28.8,74.5,92.2,84.6c7.8,1.6,15.7,2.2,23.6,2.1
	c0.2,0,0.4,0,0.6,0l0,0c21.2-0.4,42.7-6.2,63-13.4c2.8-1,5.7-2.1,7.7-4.2c2.1-2.2,3-5.1,3.9-8c5.7-18.2,11.3-36.3,17-54.5
	C798.5,285.8,797.1,286.2,795.7,287z M636.1,144c11.1-14.1,28.1-21,45.6-21.7c12.8-0.6,25.8,2.1,37,7.5c11.2,5.4,21.1,14.4,24,26.8
	c5.6,23.9-7.7,50.1-24.6,66.3c-20.5,19.7-50.1,36.9-74,51.9c-0.7,0.4-3.9-5.7-4.1-6.2c-3.3-7-5.1-12-7.4-18.8
	c-5.8-17.4-8.8-35.5-9.2-53.7C622.9,178.1,624.5,158.8,636.1,144z"/>
</svg>
